# xmcd
#
# Track frame offsets: 
#        150
#        20265
#        39197
#        56292
#        77432
#        94260
#        113950
#        133472
#        153020
#        174325
#
# Disc length: 2589 seconds
#
# Revision: 8
# Processed by: cddbd v1.5.2PL0 Copyright (c) Steve Scherf et al.
# Submitted via: ExactAudioCopy v1.3
#
DISCID=6d0a1b0a
DTITLE=松田聖子 - Strawberry Time
DYEAR=1987
DGENRE=J-Pop
TTITLE0=Strawberry Time
TTITLE1=裏庭のガレージで抱きしめて
TTITLE2=Kimono Beat
TTITLE3=妖しいニュアンス
TTITLE4=シェルブールは霧雨
TTITLE5=All Of You
TTITLE6=雛菊の地平線
TTITLE7=チャンスは2度ないのよ
TTITLE8=ピンクの豹
TTITLE9=Love
EXTD=
EXTT0=
EXTT1=
EXTT2=
EXTT3=
EXTT4=
EXTT5=
EXTT6=
EXTT7=
EXTT8=
EXTT9=
PLAYORDER=
